# xmcd
#
# Track frame offsets:
#	150
#	24833
#	44918
#	67959
#	89295
#	110728
#	129490
#	150989
#	176397
#	197695
#	209603
#	218286
#	226445
#	237209
#
# Disc length: 3309 seconds
#
# Revision: 0
# Processed by: cddbd v1.5.2PL0 Copyright (c) Steve Scherf et al.
# Submitted via: audiograbber 1.83.01
#
DISCID=b70ceb0e
DTITLE=XMIX - Urban series 136
DYEAR=2010
DGENRE=Dance
TTITLE0=Trina - Diddy - Keri Hilson - Million Dollar Girl 135 BPM
TTITLE1=Usher - Nicki Minaj - Little Freak  [Uptempo] 134 BPM
TTITLE2=Roscoe Dash - Soulja Boy Tell 'Em - All The Way Turnt Up 132 BPM
TTITLE3=Kraave - Flo Rida - Pitbull - Go Crazy  [Remix] 126 BPM 
TTITLE4=Fat Joe - Young Jeezy  - Ha Ha (Slow Down Son) 95 BPM
TTITLE5=50 Cent - Do You Think About Me 94 BPM 
TTITLE6=Ludacris - Nicki Minaj - My Chick Bad 85 BPM 
TTITLE7=Timbaland - Drake - Say Something 80 BPM
TTITLE8=Usher - Nicki Minaj  - Little Freak [Downtempo] [Bonus] 70 BPM
TTITLE9=DJ Tools - Little Freak [Transition]  70-134 
TTITLE10=DJ Tools - Million Dollar Girl [X-Dub] 135 BPM 
TTITLE11=DJ Tools - Go Crazy [X-Dub] 126 BPM
TTITLE12=DJ Tools - Ha Ha (Slow Down Son) [X-Dub]  95 BPM
TTITLE13=DJ Tools - Do You Think About Me [X-Dub] 94 BPM 
EXTD=
EXTT0=
EXTT1=
EXTT2=
EXTT3=
EXTT4=
EXTT5=
EXTT6=
EXTT7=
EXTT8=
EXTT9=
EXTT10=
EXTT11=
EXTT12=
EXTT13=
PLAYORDER=
